<svg xmlns="http://www.w3.org/2000/svg" xmlns:xlink="http://www.w3.org/1999/xlink" viewBox="0,0,256,256" width="48px" height="48px" fill-rule="nonzero"><g fill="none" fill-rule="nonzero" stroke="none" stroke-width="1" stroke-linecap="butt" stroke-linejoin="miter" stroke-miterlimit="10" stroke-dasharray="" stroke-dashoffset="0" font-family="none" font-weight="none" font-size="none" text-anchor="none" style="mix-blend-mode: normal"><g transform="scale(5.33333,5.33333)"><path d="M31.613,19.927l-3.341,0.469c0,0 0.505,-4.505 -5.058,-4.505c-2.83,0 -3.904,1.802 -3.904,3.162c0,1.661 1.448,2.445 5.968,3.474c4.52,1.03 6.722,2.815 6.722,5.968c0,3.153 -2.18,6.268 -8.056,6.268c-5.307,0 -7.667,-2.464 -8.531,-7.088c1.848,-0.273 3.479,-0.525 3.479,-0.525c0,0 -0.587,5.094 5.032,5.094c2.555,0 4.855,-0.786 4.855,-3.35c0,-2.564 -2.34,-3.068 -5.209,-3.615c-2.869,-0.547 -7.37,-1.618 -7.37,-6.179c0,-4.106 4.166,-5.863 6.977,-5.863c6.501,0 8.436,3.613 8.436,6.69z" fill="#aeaeae"></path><path d="M24,4c-11.046,0 -20,8.954 -20,20c0,11.046 8.954,20 20,20c11.046,0 20,-8.954 20,-20c0,-11.046 -8.954,-20 -20,-20zM24,41c-9.389,0 -17,-7.611 -17,-17c0,-9.389 7.611,-17 17,-17c9.389,0 17,7.611 17,17c0,9.389 -7.611,17 -17,17z" fill="#0266bd"></path></g></g></svg>